    <svg width="267" height="239" viewBox="0 0 267 239" fill="none" xmlns="http://www.w3.org/2000/svg">
    <path fill-rule="evenodd" clip-rule="evenodd" d="M59.0293 32.7054C59.0293 14.6427 73.6721 0 91.7348 0C109.798 0 124.44 14.6427 124.44 32.7055V86.4131C124.44 96.7347 116.073 105.102 105.751 105.102C79.9475 105.102 59.0293 84.1838 59.0293 58.3799V32.7054ZM81.2835 142.321C90.0427 126.25 106.883 116.249 125.186 116.249H144.045C162.196 116.249 178.921 126.086 187.743 141.949L203.066 169.503C204.439 171.55 205.646 173.717 206.67 175.984L207.4 177.298L207.277 177.395C209.413 182.603 210.591 188.304 210.591 194.279C210.591 218.905 190.591 238.868 165.92 238.868C153.826 238.868 142.854 234.07 134.81 226.277C126.767 234.07 115.795 238.868 103.7 238.868C79.0292 238.868 59.0293 218.905 59.0293 194.279C59.0293 188.304 60.2068 182.604 62.3427 177.396L62.2201 177.298L63.023 175.825C63.9007 173.9 64.9114 172.049 66.0435 170.283L81.2835 142.321ZM31.9078 65.2906C14.2856 65.2906 0 79.5762 0 97.1984V115.255C0 140.43 20.408 160.838 45.5825 160.838C55.6523 160.838 63.8155 152.675 63.8155 142.605V97.1984C63.8155 79.5762 49.5299 65.2906 31.9078 65.2906ZM207.4 32.7054C207.4 14.6427 192.758 0 174.695 0C156.632 0 141.99 14.6427 141.99 32.7055V86.4131C141.99 96.7347 150.357 105.102 160.678 105.102C186.482 105.102 207.4 84.1838 207.4 58.3799V32.7054ZM234.522 65.2906C252.144 65.2906 266.43 79.5762 266.43 97.1984V115.255C266.43 140.43 246.022 160.838 220.847 160.838C210.777 160.838 202.614 152.675 202.614 142.605V97.1984C202.614 79.5762 216.9 65.2906 234.522 65.2906Z" fill="url(#paint0_linear_142_106)"/>
    <defs>
    <linearGradient id="paint0_linear_142_106" x1="133.215" y1="-1.76245e-06" x2="133.215" y2="238.868" gradientUnits="userSpaceOnUse">
    <stop stop-color="#7052FF"/>
    <stop offset="1" stop-color="#D06AFF"/>
    </linearGradient>
    </defs>
    </svg>
